
<svg width="97" height="96" viewBox="0 0 97 96" fill="none" xmlns="http://www.w3.org/2000/svg">
<path d="M36.8238 29.3905V37.1505C36.8238 39.8031 34.6734 41.9535 32.0208 41.9535C29.3682 41.9535 27.2178 39.8031 27.2178 37.1505V29.3905C27.2178 17.7136 36.6226 8.19195 48.2552 8.00268L48.6085 8C60.2856 8 69.8069 17.4049 69.9962 29.0373L69.999 29.3905V37.1505C69.999 39.8031 67.8487 41.9535 65.1961 41.9535C62.5434 41.9535 60.3931 39.8031 60.3931 37.1505V29.3905C60.3931 22.9575 55.2117 17.7118 48.8031 17.6075L48.6085 17.6059C42.1103 17.6059 36.8238 22.8925 36.8238 29.3905Z" fill="#FFD666"/>
<g style="mix-blend-mode:overlay" filter="url(#filter0_i_27_3710)">
<path d="M36.8238 29.3905V41.9535H27.2178V29.3905C27.2178 17.7136 36.6226 8.19195 48.2552 8.00268L48.6085 8C60.2856 8 69.8069 17.4049 69.9962 29.0373L69.999 29.3905V41.9535H60.3931V29.3905C60.3931 22.9575 55.2117 17.7118 48.8031 17.6075L48.6085 17.6059C42.1103 17.6059 36.8238 22.8925 36.8238 29.3905Z" fill="white" fill-opacity="0.08"/>
</g>
<path fill-rule="evenodd" clip-rule="evenodd" d="M79.7169 68.1275C79.7169 79.1055 70.8177 88.0047 59.8399 88.0047H37.3771C26.3992 88.0047 17.5 79.1055 17.5 68.1275V47.8769C17.5 43.3057 21.2056 39.6001 25.7769 39.6001H48.6075L48.6085 39.6007L71.44 39.6001C76.0113 39.6001 79.7169 43.3057 79.7169 47.8769V68.1275ZM45.0109 66.8621C45.0109 68.8492 46.6218 70.4601 48.6089 70.4601H50.0008C51.2192 70.4601 52.2069 69.4724 52.2069 68.254C52.2069 67.3451 52.7769 66.5489 53.5652 66.0965C54.3915 65.6222 55.1536 65.029 55.8191 64.3292C57.7141 62.3285 58.6785 59.7142 58.5344 56.9604C58.2658 51.7841 53.9962 47.6487 48.8104 47.5434C48.789 47.543 48.7677 47.543 48.7463 47.543L48.612 47.5445C48.6112 47.5445 48.6104 47.5443 48.6097 47.5439C48.609 47.5436 48.6083 47.5434 48.6075 47.5434C43.9654 47.544 39.4555 51.1224 38.76 56.1016C38.689 56.6459 39.1269 57.1041 39.6759 57.1041H45.8796C45.8847 57.1041 45.8889 57.0999 45.8889 57.0948C45.9151 56.9074 45.9596 56.7267 46.0206 56.5545L46.0412 56.4982C46.0512 56.4718 46.0616 56.4456 46.0724 56.4196L46.0999 56.3557C46.164 56.2116 46.24 56.0745 46.3267 55.9454C46.4407 55.7756 46.5732 55.6198 46.7213 55.4806C46.8192 55.3886 46.9239 55.3037 47.0346 55.227L47.1047 55.1799L47.1652 55.1418L47.2087 55.1157L47.2571 55.088C47.2824 55.0739 47.3079 55.0601 47.3338 55.0467C47.3792 55.0231 47.4253 55.0009 47.4722 54.9798L47.559 54.9427C47.6037 54.9244 47.6491 54.9073 47.695 54.8914L47.7544 54.8715C47.8302 54.8471 47.9076 54.8259 47.9862 54.808C48.0258 54.799 48.0658 54.7908 48.106 54.7835L48.1634 54.7737L48.2212 54.7651L48.2882 54.7567C48.3304 54.7519 48.3729 54.748 48.4156 54.7451L48.4774 54.7416L48.5395 54.7394L48.6076 54.7386C48.6082 54.7386 48.6087 54.7391 48.6087 54.7397C48.6087 54.7404 48.6092 54.7409 48.6098 54.7409L48.6665 54.7392C50.072 54.7681 51.2762 55.929 51.3481 57.3347C51.3865 58.0973 51.1226 58.8217 50.5997 59.3736L50.5514 59.4228L50.4918 59.4805C49.9961 59.9469 49.3633 60.2083 48.6845 60.2264L48.6095 60.2274L47.9332 60.2272C46.3192 60.2272 45.0109 61.5356 45.0109 63.1496V66.8621ZM48.6087 72.9748C48.6087 72.975 48.6088 72.975 48.6087 72.9748C46.651 72.9749 45.0635 74.5615 45.0635 76.519C45.0635 78.4763 46.6503 80.0633 48.6078 80.0634C48.6078 80.0632 48.6079 80.0633 48.6078 80.0634L48.6089 80.0632L48.6724 80.0626C50.6001 80.0283 52.1521 78.4549 52.1521 76.5188C52.1521 74.5617 50.5657 72.9753 48.6087 72.9748Z" fill="#00A76F"/>
<g style="mix-blend-mode:overlay" filter="url(#filter1_i_27_3710)">
<path fill-rule="evenodd" clip-rule="evenodd" d="M79.7169 68.1275C79.7169 79.1055 70.8177 88.0047 59.8399 88.0047H37.3771C26.3992 88.0047 17.5 79.1055 17.5 68.1275V47.8769C17.5 43.3057 21.2056 39.6001 25.7769 39.6001H48.6075L48.6085 39.6007L71.44 39.6001C76.0113 39.6001 79.7169 43.3057 79.7169 47.8769V68.1275ZM45.0109 66.8621C45.0109 68.8492 46.6218 70.4601 48.6089 70.4601H50.0008C51.2192 70.4601 52.2069 69.4724 52.2069 68.254C52.2069 67.3451 52.7769 66.5489 53.5652 66.0965C54.3915 65.6222 55.1536 65.029 55.8191 64.3292C57.7141 62.3285 58.6785 59.7142 58.5344 56.9604C58.2658 51.7841 53.9962 47.6487 48.8104 47.5434C48.789 47.543 48.7677 47.543 48.7463 47.543L48.612 47.5445C48.6112 47.5445 48.6104 47.5443 48.6097 47.5439C48.609 47.5436 48.6083 47.5434 48.6075 47.5434C43.9654 47.544 39.4555 51.1224 38.76 56.1016C38.689 56.6459 39.1269 57.1041 39.6759 57.1041H45.8796C45.8847 57.1041 45.8889 57.0999 45.8889 57.0948C45.9151 56.9074 45.9596 56.7267 46.0206 56.5545L46.0412 56.4982C46.0512 56.4718 46.0616 56.4456 46.0724 56.4196L46.0999 56.3557C46.164 56.2116 46.24 56.0745 46.3267 55.9454C46.4407 55.7756 46.5732 55.6198 46.7213 55.4806C46.8192 55.3886 46.9239 55.3037 47.0346 55.227L47.1047 55.1799L47.1652 55.1418L47.2087 55.1157L47.2571 55.088C47.2824 55.0739 47.3079 55.0601 47.3338 55.0467C47.3792 55.0231 47.4253 55.0009 47.4722 54.9798L47.559 54.9427C47.6037 54.9244 47.6491 54.9073 47.695 54.8914L47.7544 54.8715C47.8302 54.8471 47.9076 54.8259 47.9862 54.808C48.0258 54.799 48.0658 54.7908 48.106 54.7835L48.1634 54.7737L48.2212 54.7651L48.2882 54.7567C48.3304 54.7519 48.3729 54.748 48.4156 54.7451L48.4774 54.7416L48.5395 54.7394L48.6076 54.7386C48.6082 54.7386 48.6087 54.7391 48.6087 54.7397C48.6087 54.7404 48.6092 54.7409 48.6098 54.7409L48.6665 54.7392C50.072 54.7681 51.2762 55.929 51.3481 57.3347C51.3865 58.0973 51.1226 58.8217 50.5997 59.3736L50.5514 59.4228L50.4918 59.4805C49.9961 59.9469 49.3633 60.2083 48.6845 60.2264L48.6095 60.2274L47.9332 60.2272C46.3192 60.2272 45.0109 61.5356 45.0109 63.1496V66.8621ZM48.6087 72.9748C48.6087 72.975 48.6088 72.975 48.6087 72.9748C46.651 72.9749 45.0635 74.5615 45.0635 76.519C45.0635 78.4763 46.6503 80.0633 48.6078 80.0634C48.6078 80.0632 48.6079 80.0633 48.6078 80.0634L48.6089 80.0632L48.6724 80.0626C50.6001 80.0283 52.1521 78.4549 52.1521 76.5188C52.1521 74.5617 50.5657 72.9753 48.6087 72.9748Z" fill="white" fill-opacity="0.08"/>
</g>
<path fill-rule="evenodd" clip-rule="evenodd" d="M48.6089 70.4457C46.6218 70.4457 45.0109 68.8348 45.0109 66.8477V63.1352C45.0109 61.5212 46.3192 60.2128 47.9332 60.2128H48.6087C48.6088 60.2128 48.6089 60.2129 48.6091 60.2129C48.6092 60.213 48.6093 60.213 48.6095 60.213L48.6845 60.212C49.3633 60.1939 49.9961 59.9325 50.4918 59.4661L50.5514 59.4084L50.5997 59.3592C51.1226 58.8073 51.3865 58.0829 51.3481 57.3203C51.2762 55.9146 50.072 54.7537 48.6665 54.7248L48.6098 54.7265C48.6092 54.7265 48.6087 54.726 48.6087 54.7253C48.6087 54.7247 48.6082 54.7242 48.6076 54.7242L48.5395 54.725L48.4774 54.7272L48.4156 54.7307C48.3729 54.7336 48.3304 54.7374 48.2882 54.7422L48.2212 54.7507L48.1634 54.7593L48.106 54.7691C48.0658 54.7764 48.0258 54.7846 47.9862 54.7936C47.9075 54.8115 47.8302 54.8327 47.7544 54.8571L47.695 54.877C47.6491 54.8929 47.6037 54.91 47.559 54.9283L47.4715 54.9657L47.4923 54.9565C47.4386 54.9801 47.3857 55.0054 47.3338 55.0323C47.3079 55.0457 47.2824 55.0594 47.2571 55.0736L47.2087 55.1013L47.1652 55.1274L47.1047 55.1655L47.0346 55.2126C46.9239 55.2893 46.8192 55.3742 46.7213 55.4662C46.5732 55.6054 46.4407 55.7612 46.3267 55.931C46.24 56.0601 46.164 56.1972 46.0999 56.3413L46.0724 56.4052C46.0616 56.4312 46.0512 56.4574 46.0412 56.4838L46.0206 56.5401C45.9596 56.7123 45.9151 56.893 45.8889 57.0804C45.8889 57.0855 45.8847 57.0897 45.8796 57.0897H39.6759C39.1269 57.0897 38.689 56.6315 38.76 56.0872C39.4555 51.108 43.9654 47.5296 48.6075 47.529C48.6083 47.529 48.609 47.5292 48.6097 47.5295C48.6104 47.5299 48.6112 47.5301 48.612 47.5301L48.7463 47.5286C48.7677 47.5286 48.789 47.5286 48.8104 47.529C53.9962 47.6343 58.2658 51.7697 58.5344 56.946C58.6785 59.6998 57.7141 62.3141 55.8191 64.3148C55.1536 65.0146 54.3915 65.6078 53.5652 66.0821C52.7769 66.5345 52.2069 67.3307 52.2069 68.2396C52.2069 69.458 51.2192 70.4457 50.0008 70.4457H48.6089ZM48.6087 72.9604C48.6087 72.9603 48.6088 72.9602 48.6089 72.9602C50.566 72.9607 52.1521 74.5473 52.1521 76.5044C52.1521 78.4405 50.6001 80.0139 48.6724 80.0482L48.6089 80.0488C48.6088 80.0488 48.6087 80.0487 48.6087 80.0486C48.6087 80.0485 48.6085 80.0484 48.6084 80.0485L48.608 80.0489C48.608 80.0489 48.6079 80.049 48.6078 80.049C46.6503 80.0489 45.0635 78.4619 45.0635 76.5046C45.0635 74.5471 46.6501 72.9603 48.6078 72.9602C48.6079 72.9602 48.608 72.9602 48.608 72.9603L48.6083 72.9606C48.6084 72.9607 48.6087 72.9606 48.6087 72.9604Z" fill="white"/>
<defs>
<filter id="filter0_i_27_3710" x="25.2178" y="6" width="44.7812" height="35.9535" filterUnits="userSpaceOnUse" color-interpolation-filters="sRGB">
<feFlood flood-opacity="0" result="BackgroundImageFix"/>
<feBlend mode="normal" in="SourceGraphic" in2="BackgroundImageFix" result="shape"/>
<feColorMatrix in="SourceAlpha" type="matrix" values="0 0 0 0 0 0 0 0 0 0 0 0 0 0 0 0 0 0 127 0" result="hardAlpha"/>
<feOffset dx="-2" dy="-2"/>
<feGaussianBlur stdDeviation="2"/>
<feComposite in2="hardAlpha" operator="arithmetic" k2="-1" k3="1"/>
<feColorMatrix type="matrix" values="0 0 0 0 0 0 0 0 0 0 0 0 0 0 0 0 0 0 0.4 0"/>
<feBlend mode="normal" in2="shape" result="effect1_innerShadow_27_3710"/>
</filter>
<filter id="filter1_i_27_3710" x="15.5" y="37.6001" width="64.2169" height="50.4046" filterUnits="userSpaceOnUse" color-interpolation-filters="sRGB">
<feFlood flood-opacity="0" result="BackgroundImageFix"/>
<feBlend mode="normal" in="SourceGraphic" in2="BackgroundImageFix" result="shape"/>
<feColorMatrix in="SourceAlpha" type="matrix" values="0 0 0 0 0 0 0 0 0 0 0 0 0 0 0 0 0 0 127 0" result="hardAlpha"/>
<feOffset dx="-2" dy="-2"/>
<feGaussianBlur stdDeviation="2"/>
<feComposite in2="hardAlpha" operator="arithmetic" k2="-1" k3="1"/>
<feColorMatrix type="matrix" values="0 0 0 0 0 0 0 0 0 0 0 0 0 0 0 0 0 0 0.24 0"/>
<feBlend mode="normal" in2="shape" result="effect1_innerShadow_27_3710"/>
</filter>
</defs>
</svg>
